<svg width="57" height="114" viewBox="0 0 57 114" fill="none" xmlns="http://www.w3.org/2000/svg">
<circle cx="28.5" cy="28.5" r="28.5" fill="#FFD300"/>
<path d="M22 38.1067C22.0369 40.3415 23.7055 41.6943 25.1675 40.6303L36.9252 31.4796C37.5653 30.9804 38 30.0658 38 28.9952C38 27.9235 37.5653 27.0088 36.9252 26.5096L25.1675 17.3716C23.7054 16.3074 22.0368 17.6478 22 19.8825V38.1067Z" fill="black"/>
<circle cx="28.5" cy="85.5" r="28.5" fill="white"/>
<path d="M22 95.1067C22.0369 97.3415 23.7055 98.6943 25.1675 97.6303L36.9252 88.4796C37.5653 87.9804 38 87.0658 38 85.9952C38 84.9235 37.5653 84.0088 36.9252 83.5096L25.1675 74.3716C23.7054 73.3074 22.0368 74.6478 22 76.8825V95.1067Z" fill="black"/>
</svg>
